PathFileType        4      (X/Y/Z)      C:\Users\pc\Desktop\IMUTRC\Sujet_06\Sujet_06_Tpose.trc         
DataRate	CameraRate	NumFrames	NumMarkers	Units	OrigDataRate	OrigDataStartFrame	OrigNumFrames
60.0	60.0	4	64	mm	60.0	96	127
Frame#	Time	pHipOrigin			pRightASI			pLeftASI			pRightCSI			pLeftCSI			pRightIschialTub			pLeftIschialTub			pSacrum			pL5SpinalProcess			pL3SpinalProcess			pT12SpinalProcess			pIJ			pT4SpinalProcess			pT8SpinalProcess			pPX			pC7SpinalProcess			pTopOfHead			pRightAuricularis			pLeftAuricularis			pBackOfHead			pRightAcromion			pLeftAcromion			pRightArmLatEpicondyle			pRightArmMedEpicondyle			pLeftArmLatEpicondyle			pLeftArmMedEpicondyle			pRightUlnarStyloid			pRightRadialStyloid			pRightOlecranon			pLeftUlnarStyloid			pLeftRadialStyloid			pLeftOlecranon			pRightTopOfHand			pRightPinky			pRightBallHand			pLeftTopOfHand			pLeftPinky			pLeftBallHand			pRightGreaterTrochanter			pRightKneeLatEpicondyle			pRightKneeMedEpicondyle			pRightPatella			pLeftGreaterTrochanter			pLeftKneeLatEpicondyle			pLeftKneeMedEpicondyle			pLeftPatella			pRightTibialTub			pRightLatMalleolus			pRightMedMalleolus			pLeftTibialTub			pLeftLatMalleolus			pLeftMedMalleolus			pRightHeelFoot			pRightFirstMetatarsal			pRightFifthMetatarsal			pRightPivotFoot			pRightHeelCenter			pRightToe			pLeftHeelFoot			pLeftFirstMetatarsal			pLeftFifthMetatarsal			pLeftPivotFoot			pLeftHeelCenter			pLeftToe			
		X1	Y1	Z1	X2	Y2	Z2	X3	Y3	Z3	X4	Y4	Z4	X5	Y5	Z5	X6	Y6	Z6	X7	Y7	Z7	X8	Y8	Z8	X9	Y9	Z9	X10	Y10	Z10	X11	Y11	Z11	X12	Y12	Z12	X13	Y13	Z13	X14	Y14	Z14	X15	Y15	Z15	X16	Y16	Z16	X17	Y17	Z17	X18	Y18	Z18	X19	Y19	Z19	X20	Y20	Z20	X21	Y21	Z21	X22	Y22	Z22	X23	Y23	Z23	X24	Y24	Z24	X25	Y25	Z25	X26	Y26	Z26	X27	Y27	Z27	X28	Y28	Z28	X29	Y29	Z29	X30	Y30	Z30	X31	Y31	Z31	X32	Y32	Z32	X33	Y33	Z33	X34	Y34	Z34	X35	Y35	Z35	X36	Y36	Z36	X37	Y37	Z37	X38	Y38	Z38	X39	Y39	Z39	X40	Y40	Z40	X41	Y41	Z41	X42	Y42	Z42	X43	Y43	Z43	X44	Y44	Z44	X45	Y45	Z45	X46	Y46	Z46	X47	Y47	Z47	X48	Y48	Z48	X49	Y49	Z49	X50	Y50	Z50	X51	Y51	Z51	X52	Y52	Z52	X53	Y53	Z53	X54	Y54	Z54	X55	Y55	Z55	X56	Y56	Z56	X57	Y57	Z57	X58	Y58	Z58	X59	Y59	Z59	X60	Y60	Z60	X61	Y61	Z61	X62	Y62	Z62	X63	Y63	Z63	X64	Y64	Z64	
96	1.583	1141.64639	894.2705500000001	-1013.48367	1211.86624	980.78325	-905.1133199999999	1184.38641	982.6764300000001	-1134.01629	1170.21623	1038.61137	-917.8492699999999	1146.98172	1040.16033	-1110.83914	1099.99637	843.4414700000001	-959.95824	1088.4078	844.2446300000001	-1056.45318	1083.41668	911.7107700000001	-1006.36989	1109.29018	994.0355200000001	-1007.9762299999999	1112.50285	1108.94596	-1007.6320199999999	1102.11903	1213.30047	-1005.4519899999999	1229.70805	1447.02245	-1028.45702	1083.58879	1408.413	-1002.2966799999999	1088.52254	1317.48288	-1002.9277399999999	1241.5261	1323.10506	-1030.1781	1081.5235	1464.86426	-1001.2066699999999	1120.13295	1735.70409	-991.6260199999999	1148.24384	1626.58794	-933.0520999999999	1111.24073	1638.11914	-1072.45917	1075.04079	1625.7274	-988.8149299999999	1141.2448	1455.39835	-829.9023399999999	1066.32067	1455.79993	-1180.65742	1189.60701	1403.93821	-559.0051399999999	1247.32039	1384.77691	-575.7569399999999	972.63683	1367.50879	-1436.86811	1028.74387	1340.43054	-1446.39139	1265.33431	1338.13578	-320.92310999999995	1243.30455	1384.31795	-311.62929999999994	1226.66749	1372.44254	-574.9537699999998	912.3992	1279.38975	-1671.33589	884.80463	1323.44927	-1669.32797	1013.65578	1333.71835	-1438.9334	1299.41159	1351.6749	-155.0688499999999	1308.99224	1333.37414	-234.06618999999992	1282.37295	1356.09233	-294.18907999999993	881.64933	1276.11971	-1835.29696	914.23502	1258.73685	-1762.49549	915.78398	1289.08514	-1699.9631	1155.64446	862.48803	-866.4465	1114.85499	485.2284000000001	-878.95298	1108.60175	482.5894200000001	-952.44288	1152.66127	482.35994000000005	-921.57827	1120.01821	861.7422300000001	-1158.68503	1090.75994	484.53997000000004	-1126.38619	1103.15168	484.02365000000003	-1053.64209	1138.0895	483.39259000000004	-1094.60367	1163.10245	450.0037300000001	-921.29142	1096.09527	85.99638000000006	-872.29816	1091.04678	83.81635000000006	-931.15892	1147.78489	449.9463600000001	-1096.61159	1067.46806	85.93901000000007	-1117.37923	1077.33555	85.25058000000007	-1059.09216	1060.58376	-0.05736999999994462	-904.36752	1212.4973	12.73595000000006	-957.54874	1220.81583	7.113780000000054	-881.82144	1238.08395	11.244360000000057	-923.0125	1097.64424	4.130580000000056	-908.15388	1313.69651	15.948630000000056	-930.92944	1041.88141	0.05737000000006611	-1079.74506	1202.91665	11.990160000000065	-1082.90036	1183.87009	11.416460000000072	-1156.84921	1214.56259	13.19491000000007	-1124.26353	1077.90924	4.646900000000066	-1089.03886	1288.16723	18.587610000000073	-1143.25272	
97	1.6	1141.76112	894.2705500000001	-1013.54104	1212.03835	980.78325	-905.1706899999999	1184.50115	982.6764300000001	-1134.07366	1170.33097	1038.554	-917.9066399999999	1147.15383	1040.16033	-1110.89651	1100.11111	843.4414700000001	-960.01561	1088.52254	844.2446300000001	-1056.51054	1083.58879	911.7107700000001	-1006.42726	1109.40492	994.0355200000001	-1008.0335999999999	1112.67496	1108.94596	-1007.6893899999999	1102.29114	1213.30047	-1005.4519899999999	1229.93753	1447.02245	-1028.51439	1083.81827	1408.413	-1002.3540499999999	1088.69465	1317.42551	-1002.9851099999998	1241.69821	1323.10506	-1030.23547	1081.69561	1464.80689	-1001.2640399999999	1120.30506	1735.70409	-991.6833899999999	1148.41595	1626.58794	-933.1094699999999	1111.47021	1638.11914	-1072.51654	1075.21289	1625.7274	-988.8722999999999	1141.47428	1455.39835	-829.9597099999999	1066.55015	1455.74256	-1180.71479	1189.89385	1403.99558	-559.1198799999999	1247.54986	1384.83428	-575.8716799999999	972.80893	1367.50879	-1436.92548	1028.91598	1340.37317	-1446.44876	1265.67852	1338.19315	-321.03784999999993	1243.64876	1384.43269	-311.68666999999994	1226.89697	1372.49991	-575.0685099999998	912.57131	1279.33238	-1671.39326	885.03411	1323.44927	-1669.38534	1013.82789	1333.71835	-1439.04814	1299.75581	1351.78964	-155.18358999999992	1309.33646	1333.4315	-234.1809299999999	1282.71716	1356.14969	-294.2464499999999	881.82144	1276.11971	-1835.35433	914.40712	1258.67948	-1762.55286	916.01346	1289.08514	-1700.02047	1155.7592	862.48803	-866.50387	1114.91235	485.2284000000001	-878.95298	1108.65912	482.5894200000001	-952.44288	1152.71863	482.35994000000005	-921.63564	1120.13295	861.6848600000001	-1158.7424	1090.81731	484.53997000000004	-1126.44356	1103.26641	484.02365000000003	-1053.69946	1138.20424	483.39259000000004	-1094.60367	1163.15982	449.9463600000001	-921.34879	1096.09527	85.99638000000006	-872.29816	1091.04678	83.81635000000006	-931.15892	1147.89962	449.9463600000001	-1096.61159	1067.46806	85.93901000000007	-1117.37923	1077.33555	85.25058000000007	-1059.09216	1060.58376	-0.05736999999994462	-904.36752	1212.4973	12.73595000000006	-957.54874	1220.81583	7.113780000000054	-881.82144	1238.08395	11.244360000000057	-923.0125	1097.64424	4.130580000000056	-908.15388	1313.69651	15.891260000000058	-930.92944	1041.88141	0.05737000000006611	-1079.74506	1202.91665	11.990160000000065	-1082.84299	1183.87009	11.416460000000072	-1156.84921	1214.56259	13.19491000000007	-1124.26353	1077.90924	4.646900000000066	-1089.03886	1288.16723	18.587610000000073	-1143.19535	
98	1.617	1141.93323	894.2131800000001	-1013.59841	1212.21046	980.78325	-905.2280599999999	1184.67326	982.6764300000001	-1134.07366	1170.50308	1038.554	-917.9640099999999	1147.26856	1040.16033	-1110.89651	1100.28322	843.4414700000001	-960.01561	1088.63728	844.2446300000001	-1056.51054	1083.70353	911.7107700000001	-1006.42726	1109.57702	993.9781500000001	-1008.0909699999999	1112.84707	1108.94596	-1007.6893899999999	1102.46325	1213.30047	-1005.5093599999999	1230.10964	1446.96508	-1028.57176	1083.99037	1408.413	-1002.4114199999999	1088.86675	1317.42551	-1003.0424799999998	1241.87032	1323.04769	-1030.29284	1081.92509	1464.80689	-1001.3214099999999	1120.47716	1735.70409	-991.7981299999999	1148.64542	1626.58794	-933.2242099999999	1111.64231	1638.11914	-1072.63128	1075.44237	1625.7274	-988.9296699999999	1141.64639	1455.39835	-830.0170799999999	1066.72226	1455.74256	-1180.82953	1190.1807	1404.05295	-559.1772499999998	1247.83671	1384.83428	-575.9290499999998	973.03841	1367.45142	-1436.98285	1029.14545	1340.37317	-1446.50613	1265.96537	1338.30788	-321.0952199999999	1243.99298	1384.54743	-311.8014099999999	1227.12644	1372.49991	-575.1258799999999	912.80079	1279.33238	-1671.45063	885.20622	1323.3919	-1669.44271	1014.05736	1333.66098	-1439.04814	1300.10002	1351.96175	-155.24095999999992	1309.6233	1333.54624	-234.23829999999992	1283.06138	1356.26443	-294.36118999999997	881.99354	1276.06234	-1835.4117	914.57923	1258.62211	-1762.61023	916.18557	1289.02777	-1700.02047	1155.93131	862.48803	-866.50387	1114.96972	485.2284000000001	-879.01035	1108.71649	482.5320500000001	-952.50025	1152.83337	482.35994000000005	-921.63564	1120.30506	861.6848600000001	-1158.79977	1090.93204	484.53997000000004	-1126.44356	1103.32378	484.02365000000003	-1053.69946	1138.26161	483.39259000000004	-1094.60367	1163.21719	449.9463600000001	-921.34879	1096.09527	85.99638000000006	-872.29816	1091.04678	83.81635000000006	-931.15892	1147.95699	449.88899000000004	-1096.61159	1067.46806	85.93901000000007	-1117.37923	1077.33555	85.25058000000007	-1059.09216	1060.58376	-0.05736999999994462	-904.36752	1212.4973	12.73595000000006	-957.54874	1220.81583	7.113780000000054	-881.82144	1238.08395	11.244360000000057	-923.0125	1097.64424	4.130580000000056	-908.15388	1313.69651	15.891260000000058	-930.92944	1041.88141	0.05737000000006611	-1079.74506	1202.91665	11.990160000000065	-1082.84299	1183.87009	11.416460000000072	-1156.79185	1214.56259	13.19491000000007	-1124.20616	1077.90924	4.646900000000066	-1089.03886	1288.16723	18.587610000000073	-1143.13798	
99	1.633	1142.04797	894.2131800000001	-1013.59841	1212.38257	980.72588	-905.2854299999999	1184.788	982.6190600000001	-1134.13103	1170.67518	1038.554	-917.9640099999999	1147.44067	1040.16033	-1110.95388	1100.39796	843.4414700000001	-960.07298	1088.75202	844.2446300000001	-1056.56791	1083.87564	911.7107700000001	-1006.48463	1109.74913	993.9781500000001	-1008.0909699999999	1113.01917	1108.94596	-1007.7467499999999	1102.63535	1213.30047	-1005.5667299999999	1230.33912	1446.96508	-1028.62913	1084.21985	1408.413	-1002.4687899999999	1089.09623	1317.42551	-1003.0998499999998	1242.09979	1323.04769	-1030.35021	1082.15456	1464.80689	-1001.3787799999999	1120.70664	1735.70409	-991.9128599999999	1148.8749	1626.58794	-933.2815799999998	1111.87179	1638.11914	-1072.68865	1075.67185	1625.67003	-989.0444099999999	1141.87586	1455.39835	-830.1318199999998	1066.95173	1455.74256	-1180.88689	1190.41018	1404.05295	-559.2346199999998	1248.06619	1384.89165	-575.9864199999998	973.21052	1367.45142	-1437.04022	1029.31756	1340.3158	-1446.5635	1266.30958	1338.42262	-321.1525899999999	1244.33719	1384.66217	-311.85877999999997	1227.41329	1372.55728	-575.1832499999999	912.97289	1279.27501	-1671.508	885.37833	1323.3919	-1669.50007	1014.22947	1333.66098	-1439.10551	1300.44423	1352.07648	-155.2983299999999	1309.96752	1333.66098	-234.29566999999992	1283.34822	1356.37917	-294.41855999999996	882.16565	1276.00497	-1835.46907	914.75134	1258.62211	-1762.61023	916.35767	1288.9704	-1700.07784	1156.04605	862.48803	-866.56124	1115.02709	485.2284000000001	-879.01035	1108.77385	482.5320500000001	-952.50025	1152.89074	482.35994000000005	-921.63564	1120.47716	861.6848600000001	-1158.79977	1091.04678	484.53997000000004	-1126.44356	1103.43852	484.02365000000003	-1053.69946	1138.37634	483.39259000000004	-1094.60367	1163.27456	449.9463600000001	-921.34879	1096.09527	85.99638000000006	-872.29816	1091.04678	83.81635000000006	-931.15892	1148.07173	449.88899000000004	-1096.66896	1067.46806	85.93901000000007	-1117.32186	1077.33555	85.25058000000007	-1059.09216	1060.58376	-0.05736999999994462	-904.36752	1212.4973	12.73595000000006	-957.54874	1220.81583	7.113780000000054	-881.82144	1238.08395	11.244360000000057	-923.0125	1097.64424	4.130580000000056	-908.15388	1313.69651	15.891260000000058	-930.92944	1041.88141	0.05737000000006611	-1079.74506	1202.91665	11.990160000000065	-1082.84299	1183.92746	11.416460000000072	-1156.79185	1214.61996	13.19491000000007	-1124.20616	1077.90924	4.646900000000066	-1089.03886	1288.16723	18.587610000000073	-1143.13798	
